<?xml version="1.0" encoding="utf-8"?>
<!-- Generator: Adobe Illustrator 27.9.3, SVG Export Plug-In . SVG Version: 9.03 Build 53313)  -->
<svg version="1.1" id="logo-82" xmlns="http://www.w3.org/2000/svg" xmlns:xlink="http://www.w3.org/1999/xlink" x="0px" y="0px"
	 viewBox="0 0 40 28" style="enable-background:new 0 0 40 28;" xml:space="preserve">

<path fill-rule="evenodd" clip-rule="evenodd" stroke="transparent" fill="#ece5cf" d="M1,8.6c-1,2.6-1.3,5.4-0.8,8.1c0.5,2.7,1.8,5.2,3.7,7.2s4.4,3.3,7,3.8c2.7,0.5,5.4,0.3,7.9-0.8
	c2.5-1.1,4.6-2.9,6.1-5.2c0-0.1,0.1-0.1,0.1-0.2c0,0,0.1-0.1,0.1-0.1V28h1.1c2.7,0,5.4-0.8,7.6-2.4c2.3-1.5,4-3.7,5-6.3
	c1-2.6,1.3-5.4,0.8-8.1c-0.5-2.7-1.8-5.2-3.7-7.2c-1.9-2-4.4-3.3-7-3.8c-2.7-0.5-5.4-0.3-7.9,0.8c-2.5,1.1-4.6,2.9-6.1,5.2
	c-0.1,0.1-0.1,0.2-0.2,0.3V0h-1.1C11,0,8.3,0.8,6.1,2.4C3.8,3.9,2.1,6.1,1,8.6z M12.6,14V2.2C10.7,2.4,8.9,3,7.3,4.2
	C5.3,5.5,3.9,7.3,3,9.5c-0.9,2.2-1.1,4.5-0.7,6.8c0.4,2.3,1.5,4.4,3.2,6.1c1.6,1.7,3.7,2.8,5.9,3.2c2.2,0.5,4.6,0.2,6.7-0.7
	c2-0.9,3.8-2.3,5-4.1c-1,0.5-2,0.7-3.2,0.7C15.9,21.5,12.6,18.2,12.6,14z M27.4,25.8V14c0-4.2-3.3-7.5-7.4-7.5
	c-1.1,0-2.2,0.3-3.2,0.7c1.3-1.8,3-3.3,5-4.1c2.1-0.9,4.4-1.1,6.7-0.7c2.2,0.5,4.3,1.6,5.9,3.2c1.6,1.7,2.7,3.8,3.2,6.1
	c0.4,2.3,0.2,4.7-0.7,6.8c-0.9,2.2-2.4,4-4.3,5.3C31.1,25,29.3,25.6,27.4,25.8z M19.9,19.4c-2.8-0.1-5.1-2.4-5.2-5.3h2
	c1.6,0.4,2.8,1.6,3.2,3.2V19.4z M20.1,19.4c2.8-0.1,5.1-2.4,5.2-5.3h-2c-1.6,0.4-2.8,1.6-3.2,3.2V19.4z M25.3,13.9
	c-0.1-2.9-2.3-5.2-5.2-5.3v2c0.4,1.6,1.6,2.9,3.2,3.2H25.3z M19.9,8.6c-2.8,0.1-5.1,2.4-5.2,5.3h2c1.6-0.4,2.8-1.6,3.2-3.2V8.6z"/>
</svg>
